# xmcd CD database file
#
# Track frame offsets:
#	150
#	14233
#	63697
#	75149
#	90549
#	119584
#	164868
#	179116
#	208725
#
# Disc length: 3593 seconds
#
# Revision: 0
# Processed by: cddbd v1.5.2PL0 Copyright (c) Steve Scherf et al.
# Submitted via: CDex 1.51
#
DISCID=850e0709
DTITLE=Masada - Live At Stadtgarten - 6/16/94 Disc 1
DYEAR=1900
DGENRE=Jazz
TTITLE0=Zebdi
TTITLE1=Sansahnah
TTITLE2=Aschaph
TTITLE3=Lachish
TTITLE4=Jair
TTITLE5=Tirzah
TTITLE6=Hekhal
TTITLE7=Sahar
TTITLE8=Hadasha
EXTD=
EXTT0=
EXTT1=
EXTT2=
EXTT3=
EXTT4=
EXTT5=
EXTT6=
EXTT7=
EXTT8=
PLAYORDER=
